<svg width="17" height="17" viewBox="0 0 17 17" fill="none" xmlns="http://www.w3.org/2000/svg">
<rect width="17" height="17" rx="3" fill="#0ABAE7"/>
<path d="M12.884 4.58447C11.8992 3.79896 10.4923 3.58206 9.88264 3.51758H9.85919C9.7654 3.51758 9.67747 3.57034 9.64816 3.65827C9.5954 3.7931 9.67747 3.93965 9.81229 3.9631C10.4982 4.10379 11.2895 4.34999 12.0106 4.80137C12.1571 4.8893 12.1923 5.08861 12.0751 5.22344C11.9813 5.32896 11.823 5.34068 11.6999 5.27034C10.293 4.40275 8.54609 4.35585 8.20609 4.35585C7.86609 4.35585 6.11919 4.40275 4.7123 5.27034C4.58919 5.34068 4.43092 5.32896 4.33712 5.22344C4.21988 5.08861 4.25505 4.8893 4.40161 4.80137C5.12264 4.34999 5.91402 4.10379 6.59988 3.9631C6.73471 3.93965 6.81678 3.7931 6.76402 3.65827C6.73471 3.57034 6.64678 3.51758 6.55298 3.51758H6.52954C5.91988 3.58206 4.51298 3.79896 3.52816 4.58447C2.95367 5.11792 1.81057 8.18378 1.75781 10.8979C1.75781 11.0796 1.80471 11.2614 1.91023 11.4079C2.59609 12.3752 4.08505 12.9555 5.21057 13.0376C5.38057 13.0493 5.54471 12.9731 5.64436 12.8324C5.65023 12.8324 5.65023 12.8265 5.65609 12.8207C5.86126 12.5393 5.73816 12.1407 5.40988 12.0176C4.47195 11.6717 3.99126 11.2614 3.96195 11.2321C3.84471 11.1265 3.83298 10.9507 3.93264 10.8334C4.03816 10.7162 4.21402 10.7045 4.33126 10.81C4.34885 10.8217 5.65023 11.9296 8.20609 11.9296C10.7619 11.9296 12.0633 10.8217 12.0809 10.81C12.1982 10.7045 12.374 10.7162 12.4795 10.8334C12.5792 10.9507 12.5675 11.1265 12.4502 11.2321C12.4209 11.2614 11.9402 11.6717 11.0023 12.0176C10.674 12.1407 10.5509 12.5393 10.7561 12.8207C10.7619 12.8265 10.762 12.8324 10.7678 12.8324C10.8675 12.9731 11.0316 13.0493 11.2016 13.0376C12.3271 12.9555 13.8161 12.3752 14.5019 11.4079C14.6075 11.2614 14.6544 11.0796 14.6544 10.8979C14.6016 8.18378 13.4585 5.11792 12.884 4.58447ZM6.38298 9.96585C5.84367 9.96585 5.40402 9.46172 5.40402 8.8462C5.40402 8.22482 5.84367 7.72068 6.38298 7.72068C6.92816 7.72068 7.36195 8.22482 7.36195 8.8462C7.36195 9.46172 6.92816 9.96585 6.38298 9.96585ZM10.0292 9.96585C9.48402 9.96585 9.05023 9.46172 9.05023 8.8462C9.05023 8.22482 9.48402 7.72068 10.0292 7.72068C10.5685 7.72068 11.0082 8.22482 11.0082 8.8462C11.0082 9.46172 10.5685 9.96585 10.0292 9.96585Z" fill="#111113"/>
</svg>
