<svg width="17" height="17" viewBox="0 0 17 17" fill="none" xmlns="http://www.w3.org/2000/svg">
<rect width="17" height="17" rx="3" fill="#8FCE51"/>
<path d="M3.8296 4.68945C3.71037 4.68945 3.59668 4.71315 3.49279 4.75491L8.4554 9.34335C8.66838 9.54025 8.85932 9.54036 9.07284 9.34335L14.0445 4.75491C13.9407 4.71315 13.827 4.68945 13.7077 4.68945H3.82954H3.8296ZM2.94093 5.46589C2.93571 5.50525 2.93164 5.54649 2.93164 5.58741V11.8735C2.93164 12.371 3.33211 12.7716 3.82971 12.7716H13.7079C14.2054 12.7716 14.606 12.3711 14.606 11.8735V5.58741C14.606 5.54649 14.6019 5.50525 14.5966 5.46579L9.68555 10.0026C9.17052 10.4781 8.35766 10.4788 7.84277 10.0026L2.94109 5.46579L2.94093 5.46589Z" fill="#111113"/>
</svg>
