<svg width="200" height="28" viewBox="0 0 200 28" fill="none" xmlns="http://www.w3.org/2000/svg">
<g clip-path="url(#clip0_876_1933)">
<path d="M36.3837 19.6535C36.9018 19.6535 37.4458 19.5987 37.964 19.4889C38.4044 19.3792 38.8448 19.2146 39.2334 18.9952V16.1424H37.4199C37.2904 16.1424 37.1091 16.0875 37.0054 16.0052C36.9018 15.8955 36.8759 15.7584 36.8759 15.6212V13.9754H41.6686V20.2844C41.306 20.5587 40.9433 20.833 40.5288 21.0251C40.1142 21.2445 39.6997 21.4091 39.2593 21.5462C38.793 21.6834 38.3008 21.7931 37.8085 21.848C37.2645 21.9028 36.7205 21.9577 36.1505 21.9577C35.1661 21.9851 34.1816 21.7657 33.249 21.3542C32.394 20.9702 31.5909 20.3942 30.9433 19.7084C30.2956 18.9678 29.7515 18.1174 29.4407 17.1848C29.0521 16.1698 28.8448 15.0726 28.8707 14.0028C28.8448 12.9056 29.0262 11.8084 29.3889 10.766C29.7256 9.80592 30.2179 8.95557 30.8914 8.24237C31.565 7.52917 32.3422 6.98056 33.249 6.59653C34.2334 6.18507 35.2956 5.96563 36.3578 5.99306C37.394 5.96563 38.4303 6.15764 39.4148 6.54167C40.2179 6.89827 40.9692 7.39202 41.6168 7.99549L40.8396 9.31216C40.7101 9.55904 40.5028 9.69619 40.2179 9.72362C40.0365 9.72362 39.8811 9.66877 39.7256 9.55904C39.5184 9.42189 39.3111 9.28474 39.078 9.14758C38.8448 9.01043 38.5857 8.90071 38.3526 8.79098C38.0417 8.68126 37.7567 8.59897 37.4458 8.54411C37.0572 8.48924 36.6686 8.43439 36.28 8.46182C35.6065 8.46182 34.9588 8.59897 34.337 8.84584C33.7671 9.09272 33.2749 9.47675 32.8863 9.9705C32.4718 10.4917 32.1609 11.0677 31.9536 11.7261C31.7205 12.4667 31.6168 13.2347 31.6168 13.9754C31.5909 14.7983 31.7205 15.6212 31.9536 16.3893C32.1609 17.0476 32.4977 17.6511 32.9381 18.1448C33.3526 18.6112 33.8707 18.9952 34.4407 19.2421C35.0883 19.5438 35.736 19.6535 36.3837 19.6535Z" fill="#0ABAE7"/>
<path d="M57.7826 21.7931H55.7101C55.5028 21.7931 55.2956 21.7382 55.1401 21.6011C55.0106 21.4639 54.8811 21.3268 54.8034 21.1348L53.7153 17.9528H47.7308L46.6427 21.1348C46.5909 21.2994 46.4873 21.4914 46.3319 21.5737C46.1764 21.7108 45.9692 21.7931 45.7619 21.7931H43.6635L49.3111 6.18506H52.0572L57.7826 21.7931ZM48.4562 15.8955H53.0417L51.3059 10.7111C51.2282 10.4642 51.1505 10.2174 51.0469 9.8882C50.9432 9.55903 50.8655 9.22986 50.7619 8.87326C50.6583 9.22986 50.5806 9.58646 50.5028 9.91563C50.4251 10.2448 50.3215 10.5191 50.2438 10.766L48.4562 15.8955Z" fill="#0ABAE7"/>
<path d="M67.7567 16.0327C67.8604 16.2795 67.9381 16.5264 68.0417 16.7733C68.1453 16.5264 68.223 16.2521 68.3267 16.0052C68.4303 15.7584 68.5339 15.5115 68.6635 15.292L72.9381 6.65138C72.9899 6.56909 73.0417 6.4868 73.0935 6.4045C73.1453 6.34964 73.223 6.29478 73.2749 6.26735C73.3526 6.23992 73.4303 6.21249 73.508 6.21249C73.5857 6.21249 73.6894 6.18506 73.8189 6.18506H75.8396V21.7931H73.4821V11.7261C73.4821 11.534 73.4821 11.342 73.508 11.0951C73.5339 10.8483 73.5339 10.6563 73.5598 10.4094L69.2075 19.2695C69.1298 19.4615 68.9743 19.6261 68.8189 19.7358C68.6635 19.8455 68.4562 19.9004 68.2749 19.9004H67.9122C67.7049 19.9004 67.5236 19.8455 67.3681 19.7358C67.2127 19.6261 67.0572 19.4615 66.9795 19.2695L62.5754 10.382C62.6013 10.6288 62.6272 10.8483 62.6272 11.0677C62.6272 11.3146 62.6531 11.5066 62.6531 11.6986V21.7657H60.2438V6.21249H62.2645C62.394 6.21249 62.4977 6.21249 62.5754 6.23992C62.6531 6.23992 62.7308 6.26735 62.8085 6.29478C62.8863 6.32221 62.9381 6.37707 63.0158 6.43193C63.0676 6.51422 63.1453 6.59652 63.1712 6.67881L67.4718 15.3469C67.5495 15.5663 67.6531 15.7858 67.7567 16.0327Z" fill="#0ABAE7"/>
<path d="M85.8396 16.0327C85.9432 16.2795 86.021 16.5264 86.1246 16.7733C86.2282 16.5264 86.3059 16.2521 86.4096 16.0052C86.5132 15.7584 86.6168 15.5115 86.7464 15.292L91.021 6.65138C91.0728 6.56909 91.1246 6.4868 91.1764 6.4045C91.2282 6.34964 91.3059 6.29478 91.3578 6.26735C91.4355 6.23992 91.5132 6.21249 91.5909 6.21249C91.6686 6.21249 91.7723 6.18506 91.9018 6.18506H93.9225V21.7931H91.565V11.7261C91.565 11.534 91.565 11.342 91.5909 11.0951C91.6168 10.8483 91.6168 10.6563 91.6427 10.4094L87.2645 19.2695C87.1868 19.4615 87.0313 19.6261 86.8759 19.7358C86.7205 19.8455 86.5132 19.9004 86.3318 19.9004H85.9692C85.7619 19.9004 85.5806 19.8455 85.4251 19.7358C85.2697 19.5986 85.1142 19.4615 85.0365 19.2695L80.6324 10.382C80.6583 10.6288 80.6842 10.8483 80.6842 11.0677C80.7101 11.2872 80.7101 11.5066 80.7101 11.6986V21.7657H78.3526V6.18506H80.3733C80.5028 6.18506 80.6065 6.18506 80.6842 6.21249C80.7619 6.21249 80.8396 6.23992 80.9173 6.26735C80.9951 6.29478 81.0469 6.34964 81.1246 6.4045C81.1764 6.4868 81.2541 6.56909 81.28 6.65138L85.5806 15.3195C85.6324 15.5663 85.736 15.7858 85.8396 16.0327Z" fill="#0ABAE7"/>
<path d="M109.441 21.7931H107.368C107.161 21.7931 106.954 21.7382 106.798 21.6011C106.669 21.4639 106.539 21.3268 106.461 21.1348L105.373 17.9528H99.3889L98.3008 21.1348C98.249 21.2994 98.1453 21.4914 97.9899 21.5737C97.8345 21.7108 97.6272 21.7931 97.42 21.7931H95.3474L100.995 6.18506H103.741L109.441 21.7931ZM100.114 15.8955H104.7L102.964 10.7111C102.886 10.4642 102.809 10.2174 102.705 9.8882C102.601 9.55903 102.498 9.22986 102.42 8.87326C102.316 9.22986 102.239 9.58646 102.161 9.91563C102.083 10.2448 101.98 10.5191 101.902 10.766L100.114 15.8955Z" fill="#0ABAE7"/>
<path d="M128.635 13.9869C128.635 15.0567 128.48 16.1265 128.117 17.1689C127.781 18.1289 127.288 18.9793 126.641 19.7199C125.993 20.4331 125.19 21.0092 124.335 21.3657C123.376 21.7772 122.366 21.9692 121.356 21.9418C120.345 21.9692 119.335 21.7498 118.376 21.3383C117.496 20.9543 116.718 20.3782 116.071 19.6925C115.423 18.9519 114.905 18.1015 114.594 17.1414C114.231 16.1265 114.05 15.0567 114.076 13.9869C114.076 12.9171 114.231 11.8473 114.594 10.8049C114.931 9.84487 115.423 8.99452 116.071 8.2539C116.718 7.5407 117.521 6.96465 118.376 6.60806C119.335 6.1966 120.345 6.00458 121.356 6.00458C122.366 6.00458 123.376 6.1966 124.335 6.60806C125.216 6.99208 125.993 7.56813 126.641 8.2539C127.288 8.99452 127.806 9.84487 128.117 10.7775C128.454 11.8199 128.635 12.8897 128.635 13.9869ZM125.889 13.9869C125.915 13.2188 125.786 12.4508 125.578 11.6827C125.397 11.0244 125.086 10.4483 124.672 9.9546C124.283 9.48827 123.791 9.10425 123.247 8.85737C122.625 8.61049 122.003 8.47334 121.356 8.47334C120.708 8.47334 120.06 8.61049 119.439 8.85737C118.895 9.10425 118.402 9.48827 117.988 9.9546C117.573 10.4483 117.262 11.0518 117.081 11.6827C116.848 12.4234 116.744 13.2188 116.744 13.9869C116.718 14.755 116.848 15.5504 117.081 16.2911C117.262 16.9494 117.599 17.5255 117.988 18.0192C118.402 18.4855 118.895 18.8696 119.439 19.089C120.06 19.3359 120.708 19.473 121.356 19.473C122.003 19.473 122.651 19.3633 123.247 19.089C123.791 18.8421 124.283 18.4855 124.672 18.0192C125.086 17.5255 125.371 16.922 125.578 16.2911C125.786 15.5504 125.889 14.755 125.889 13.9869Z" fill="#0ABAE7"/>
<path d="M133.091 16.2911V21.7772H130.397V6.16914H135.086C135.941 6.14171 136.77 6.27886 137.599 6.52574C138.247 6.74519 138.843 7.07435 139.335 7.56811C139.775 8.007 140.138 8.52818 140.345 9.13165C140.578 9.78999 140.682 10.4483 140.682 11.1341C140.682 11.8473 140.578 12.5605 140.345 13.2188C140.112 13.8497 139.749 14.3983 139.309 14.8372C138.791 15.3036 138.221 15.6876 137.573 15.8796C136.77 16.1265 135.941 16.2636 135.112 16.2636H133.091V16.2911ZM133.091 14.0417H135.112C135.527 14.0417 135.993 13.9869 136.382 13.8497C136.718 13.74 137.029 13.548 137.288 13.2737C137.521 13.0268 137.703 12.7251 137.806 12.3685C137.936 11.9844 137.988 11.573 137.988 11.189C137.988 10.8049 137.936 10.4209 137.806 10.0369C137.677 9.7077 137.496 9.40596 137.288 9.18652C137.029 8.93964 136.718 8.74762 136.382 8.6379C135.967 8.50075 135.527 8.44589 135.112 8.44589H133.091V14.0417Z" fill="#0ABAE7"/>
<path d="M153.273 6.16916V8.55563H148.946V21.7772H146.252V8.55563H141.9V6.16916H153.273Z" fill="#0ABAE7"/>
<path d="M157.781 21.7772H155.086V6.16916H157.781V21.7772Z" fill="#0ABAE7"/>
<path d="M174.62 13.9869C174.62 15.0567 174.465 16.1265 174.102 17.1689C173.765 18.1289 173.273 18.9793 172.625 19.7199C171.977 20.4331 171.174 21.0092 170.319 21.3658C169.361 21.7772 168.376 21.9692 167.34 21.9692C166.33 21.9967 165.319 21.7772 164.361 21.3658C163.48 20.9817 162.703 20.4057 162.055 19.7199C161.408 18.9793 160.889 18.1289 160.578 17.1689C160.216 16.1539 160.06 15.0841 160.06 13.9869C160.06 12.9171 160.216 11.8473 160.578 10.805C160.915 9.84488 161.408 8.99453 162.055 8.2539C162.703 7.5407 163.506 6.96466 164.361 6.60806C165.319 6.1966 166.33 6.00458 167.34 6.00458C168.351 5.97715 169.361 6.1966 170.319 6.60806C171.2 6.99209 171.977 7.56814 172.625 8.2539C173.273 8.99453 173.791 9.84488 174.102 10.7775C174.465 11.8199 174.646 12.8897 174.62 13.9869ZM171.9 13.9869C171.926 13.2189 171.796 12.4508 171.589 11.6827C171.408 11.0244 171.097 10.4484 170.682 9.9546C170.294 9.48828 169.801 9.10425 169.257 8.85738C168.635 8.6105 168.014 8.47334 167.366 8.47334C166.718 8.47334 166.071 8.6105 165.449 8.85738C164.905 9.10425 164.413 9.48828 163.998 9.9546C163.584 10.4484 163.273 11.0518 163.091 11.6827C162.858 12.4234 162.755 13.2189 162.755 13.9869C162.729 14.755 162.858 15.5505 163.091 16.2911C163.273 16.9494 163.61 17.5255 163.998 18.0192C164.413 18.4855 164.905 18.8696 165.449 19.089C166.071 19.3359 166.718 19.473 167.366 19.473C168.014 19.5005 168.661 19.3633 169.257 19.089C169.801 18.8421 170.294 18.4855 170.682 18.0192C171.097 17.5255 171.382 16.922 171.589 16.2911C171.796 15.5505 171.9 14.755 171.9 13.9869Z" fill="#0ABAE7"/>
<path d="M178.273 5.97714C178.351 5.97714 178.402 6.00457 178.506 6.032C178.558 6.08686 178.635 6.11429 178.687 6.16915C178.765 6.25145 178.817 6.3063 178.895 6.41603L186.459 16.8671C186.433 16.6202 186.408 16.3734 186.408 16.1265C186.408 15.8796 186.408 15.6327 186.408 15.4407V5.94971H188.765V21.5578H187.392C187.211 21.5578 187.029 21.5303 186.874 21.448C186.718 21.3657 186.563 21.2012 186.459 21.064L178.92 10.6678C178.946 10.9147 178.972 11.1067 178.972 11.3535C178.972 11.6004 178.998 11.7924 178.998 11.9845V21.5578H176.641V5.94971H178.04C178.091 5.97714 178.195 5.97714 178.273 5.97714Z" fill="#0ABAE7"/>
<path d="M199.128 9.02193C199.076 9.15908 198.998 9.2688 198.869 9.37853C198.765 9.43339 198.635 9.48825 198.532 9.48825C198.376 9.48825 198.195 9.43339 198.091 9.32366C197.936 9.21394 197.729 9.07679 197.496 8.96707C197.262 8.82991 196.977 8.69276 196.692 8.61047C196.356 8.47331 195.993 8.44588 195.604 8.44588C195.268 8.44588 194.957 8.50075 194.62 8.58304C194.361 8.66533 194.128 8.80248 193.92 8.9945C193.739 9.15908 193.584 9.37853 193.506 9.6254C193.402 9.87228 193.376 10.1466 193.376 10.4209C193.351 10.7501 193.454 11.0792 193.661 11.3535C193.869 11.6004 194.128 11.8199 194.413 11.9844C194.749 12.1765 195.112 12.341 195.475 12.4508C195.889 12.5879 196.278 12.7251 196.692 12.8897C197.107 13.0268 197.521 13.2462 197.91 13.4383C198.299 13.6303 198.661 13.8772 198.972 14.2063C199.309 14.5355 199.542 14.9195 199.724 15.3584C199.931 15.8796 200.034 16.4282 200.009 17.0043C200.009 17.6626 199.905 18.3484 199.672 18.9793C199.439 19.5827 199.128 20.1313 198.687 20.5977C198.247 21.064 197.703 21.448 197.133 21.6675C196.459 21.9418 195.734 22.0789 195.009 22.0515C194.568 22.0515 194.102 21.9966 193.635 21.9143C193.195 21.832 192.755 21.6675 192.366 21.5029C191.952 21.3383 191.563 21.1188 191.226 20.8445C190.889 20.5977 190.553 20.3234 190.268 19.9942L191.045 18.5952C191.123 18.4855 191.2 18.4032 191.304 18.3484C191.408 18.2935 191.537 18.2386 191.641 18.2386C191.848 18.2661 192.029 18.3209 192.159 18.4581C192.34 18.5952 192.573 18.7598 192.858 18.9518C193.143 19.1438 193.48 19.3084 193.791 19.4456C194.205 19.5827 194.646 19.6925 195.06 19.665C195.682 19.7199 196.33 19.5004 196.822 19.089C197.237 18.6501 197.496 18.0466 197.444 17.4157C197.47 17.0591 197.366 16.7025 197.159 16.4008C196.952 16.1265 196.692 15.907 196.407 15.7424C196.071 15.5504 195.708 15.3858 195.345 15.3036C194.931 15.1664 194.542 15.0567 194.128 14.8921C193.713 14.7549 193.325 14.5629 192.91 14.3709C192.521 14.1789 192.159 13.9046 191.848 13.5754C191.511 13.2188 191.252 12.8348 191.097 12.3685C190.889 11.7924 190.786 11.1889 190.812 10.558C190.812 10.0094 190.915 9.40596 191.123 8.9122C191.33 8.36359 191.641 7.86984 192.029 7.45838C192.444 7.01949 192.962 6.69032 193.506 6.44345C194.128 6.19657 194.827 6.05942 195.527 6.05942C196.33 6.05942 197.133 6.19657 197.884 6.49831C198.584 6.74518 199.18 7.15664 199.724 7.70526L199.128 9.02193Z" fill="#0ABAE7"/>
<path d="M4.0153 19.964L4.09302 16.9467L9.7925 10.9942L4.63706 4.60286L2.27955 6.41329L-0.000244141 2.90216L3.83395 -0.00549316L6.45053 0.351106L12.6422 8.03169L18.6267 1.80493L21.3728 4.87717L15.2588 11.2411L12.4091 14.2036L8.23809 18.5651L12.4091 23.3929L16.4246 19.2234L14.4557 16.7821L17.3314 13.8196L20.6474 17.9342L20.5179 20.8967L13.7044 28.0012L10.9065 27.9189L4.0153 19.964Z" fill="#0ABAE7"/>
</g>
<defs>
<clipPath id="clip0_876_1933">
<rect width="200" height="27.9793" fill="white"/>
</clipPath>
</defs>
</svg>
