<svg width="17" height="17" viewBox="0 0 17 17" fill="none" xmlns="http://www.w3.org/2000/svg">
<rect width="16.9949" height="16.9949" rx="3" fill="#8FCE51"/>
<path d="M7.20962 10.7124C7.22643 10.4854 7.48693 10.3665 7.66948 10.5026V10.5026C7.81144 10.6084 7.82604 10.816 7.69999 10.9403C7.53915 11.099 7.37835 11.2577 7.21806 11.4162V11.4162C7.19575 11.439 7.15765 11.4227 7.16 11.3909L7.16455 11.3293C7.17941 11.1238 7.1944 10.9181 7.20962 10.7124ZM9.1403 6.84004C7.97084 7.57764 6.80134 8.3174 5.6313 9.05456V9.05456C5.58997 9.0804 5.56606 9.12785 5.58061 9.17437C5.72529 9.63715 5.87006 10.1 6.01433 10.563C6.12347 10.908 6.23671 11.2523 6.34004 11.5986V11.5986C6.40293 11.8107 6.62377 11.6373 6.63983 11.4167C6.67337 10.9556 6.70645 10.4948 6.74119 10.0334C6.74244 10.0165 6.74388 9.99963 6.74545 9.9827C6.75424 9.88824 6.6829 9.76114 6.74855 9.69266V9.69266C6.78889 9.65104 6.82937 9.60858 6.86972 9.5664C6.88415 9.55295 6.89916 9.53936 6.91317 9.52605C6.93341 9.50496 6.95309 9.48387 6.97319 9.46292C7.07001 9.37276 7.1664 9.28103 7.26322 9.19058C7.31842 9.13849 7.37419 9.08612 7.42968 9.03417C7.57986 8.89362 7.72976 8.75306 7.88264 8.61477C8.27106 8.26175 8.66738 7.91664 9.05652 7.56504C9.55038 7.11822 10.0432 6.66975 10.5324 6.21787C10.5369 6.21375 10.5407 6.20949 10.5441 6.20446V6.20446C10.5864 6.14227 10.5213 6.04322 10.447 6.05473C10.4185 6.05913 10.3919 6.06664 10.369 6.08018C9.95507 6.32675 9.5481 6.58312 9.1403 6.84004ZM17 8.5C17 13.1944 13.1944 17 8.5 17C3.80556 17 0 13.1944 0 8.5C0 3.8052 3.8052 0 8.5 0C13.1944 0 17 3.80556 17 8.5ZM12.2751 5.21019C12.2885 5.14627 12.2943 5.07992 12.2813 5.01592V5.01592C12.2064 4.65511 12.0088 4.54611 11.6548 4.66729C11.6028 4.6847 11.5496 4.69616 11.4969 4.71046C11.2995 4.79199 11.1041 4.87933 10.9039 4.95421C10.5719 5.07948 10.2366 5.19654 9.90184 5.3173C9.69773 5.40237 9.49501 5.49126 9.28908 5.5718C8.773 5.77351 8.25605 5.97138 7.73914 6.17097C6.67541 6.58102 5.61151 6.99097 4.54692 7.40102C4.30784 7.49331 4.06678 7.58078 3.83027 7.67916C3.62233 7.76494 3.41 7.84817 3.21849 7.96339C3.1337 8.01435 3.04028 8.14826 3.05005 8.23333C3.05939 8.31911 3.1906 8.39257 3.271 8.46929C3.28558 8.4833 3.31064 8.48769 3.33173 8.4942C3.83814 8.65094 4.34458 8.80767 4.85132 8.96411C4.9528 8.99544 5.01462 9.09428 5.04602 9.19574V9.19574L5.25113 9.85379L5.52078 10.7172C5.55248 10.8175 5.58433 10.9158 5.61547 11.0143C5.69219 11.2548 5.77189 11.5032 5.84436 11.7463C6.00219 12.2737 6.42795 12.3145 6.55478 12.3145C6.5736 12.3145 6.5937 12.3132 6.61366 12.3125C6.63319 12.3133 6.65259 12.3139 6.67184 12.3139C6.99754 12.3139 7.20676 12.1346 7.33131 12.0271C7.35424 12.007 7.37618 11.9886 7.39203 11.9765C7.41779 11.9572 7.442 11.9363 7.46266 11.9129C7.47894 11.8961 7.49366 11.8786 7.5098 11.8619C7.53599 11.8328 7.56047 11.8053 7.58227 11.7838C7.77167 11.5963 7.96051 11.4094 8.15032 11.2223L8.29293 11.0816C8.34059 11.0345 8.41497 11.0281 8.47022 11.0659V11.0659C8.98177 11.4478 9.49248 11.8315 10.0059 12.2114C10.2982 12.4275 10.5233 12.436 10.696 12.2357C10.8212 12.0905 10.8627 11.894 10.9031 11.7065C10.9616 11.4352 11.0199 11.1637 11.0781 10.8932C11.1499 10.529 11.2209 10.1658 11.292 9.80227C11.3377 9.60255 11.3827 9.40226 11.4277 9.20281C11.5475 8.64031 11.667 8.07723 11.7861 7.51441C11.8249 7.33478 11.8629 7.15544 11.9014 6.97582C11.9107 6.93322 11.9219 6.89033 11.9304 6.84744C12.0457 6.30182 12.1604 5.75618 12.2751 5.21019Z" fill="#8FCE51"/>
<path d="M7.56689 10.097C7.57903 9.93295 7.76719 9.8471 7.89905 9.94539V9.94539C8.00158 10.0218 8.01212 10.1718 7.92108 10.2616C7.8049 10.3762 7.68876 10.4908 7.57298 10.6053V10.6053C7.55687 10.6218 7.52935 10.61 7.53105 10.587L7.53433 10.5425C7.54507 10.3941 7.55589 10.2455 7.56689 10.097ZM8.96142 7.29994C8.11671 7.8327 7.27199 8.36704 6.42686 8.89949V8.89949C6.39701 8.91815 6.37974 8.95242 6.39025 8.98603C6.49475 9.32029 6.59932 9.65463 6.70353 9.98906C6.78236 10.2382 6.86415 10.4869 6.93879 10.7371V10.7371C6.98421 10.8902 7.14373 10.765 7.15532 10.6057C7.17955 10.2726 7.20344 9.93974 7.22854 9.60648C7.22944 9.59432 7.23048 9.58211 7.23162 9.56988C7.23797 9.50165 7.18643 9.40985 7.23385 9.36039V9.36039C7.26299 9.33033 7.29223 9.29966 7.32137 9.26919C7.3318 9.25947 7.34264 9.24966 7.35276 9.24005C7.36738 9.22481 7.38159 9.20958 7.39611 9.19445C7.46604 9.12932 7.53567 9.06307 7.6056 8.99774C7.64547 8.96011 7.68576 8.92228 7.72584 8.88476C7.83431 8.78324 7.94259 8.68171 8.05301 8.58183C8.33356 8.32684 8.61983 8.07757 8.9009 7.8236C9.25762 7.50087 9.61355 7.17694 9.96693 6.85055C9.97015 6.84757 9.97295 6.84449 9.97542 6.84086V6.84086C10.0059 6.79594 9.95889 6.7244 9.90522 6.73271C9.88467 6.73589 9.86547 6.74131 9.84888 6.75109C9.54992 6.92919 9.25597 7.11437 8.96142 7.29994ZM14.6385 8.49893C14.6385 11.8897 11.8897 14.6385 8.49893 14.6385C5.10813 14.6385 2.35938 11.8897 2.35938 8.49893C2.35938 5.10787 5.10787 2.35938 8.49893 2.35938C11.8897 2.35938 14.6385 5.10813 14.6385 8.49893ZM11.2257 6.1227C11.2354 6.07653 11.2395 6.0286 11.2301 5.98238V5.98238C11.176 5.72176 11.0333 5.64303 10.7776 5.73056C10.7401 5.74313 10.7017 5.75141 10.6636 5.76174C10.521 5.82063 10.3799 5.88371 10.2352 5.9378C9.99548 6.02828 9.75327 6.11284 9.51148 6.20006C9.36405 6.26151 9.21763 6.32571 9.06888 6.38389C8.69612 6.52958 8.32272 6.6725 7.94936 6.81667C7.18103 7.11285 6.41257 7.40895 5.64362 7.70513C5.47093 7.7718 5.29681 7.83498 5.12598 7.90604C4.97579 7.968 4.82242 8.02811 4.68409 8.11134C4.62285 8.14814 4.55537 8.24487 4.56242 8.30631C4.56917 8.36827 4.66395 8.42133 4.72202 8.47675C4.73255 8.48687 4.75065 8.49004 4.76588 8.49474C5.13167 8.60795 5.49747 8.72116 5.86348 8.83415C5.93678 8.85678 5.98144 8.92818 6.00412 9.00146V9.00146L6.15227 9.47677L6.34703 10.1004C6.36994 10.1728 6.39294 10.2439 6.41543 10.315C6.47085 10.4887 6.52841 10.6682 6.58076 10.8437C6.69476 11.2247 7.00228 11.2541 7.09389 11.2541C7.10749 11.2541 7.12201 11.2532 7.13642 11.2527C7.15053 11.2533 7.16454 11.2537 7.17845 11.2537C7.4137 11.2537 7.56482 11.1242 7.65478 11.0466C7.67134 11.0321 7.68719 11.0188 7.69864 11.01C7.71725 10.9961 7.73473 10.9809 7.74966 10.9641C7.76142 10.9519 7.77205 10.9393 7.78371 10.9273C7.80262 10.9062 7.82031 10.8864 7.83605 10.8708C7.97285 10.7354 8.10925 10.6004 8.24635 10.4652L8.34936 10.3636C8.38378 10.3296 8.43751 10.3249 8.47742 10.3523V10.3523C8.84691 10.6281 9.2158 10.9053 9.58663 11.1797C9.7663 11.3125 9.91087 11.3367 10.0268 11.2518C10.1816 11.1385 10.2112 10.9242 10.2516 10.7367C10.2882 10.5668 10.3246 10.3969 10.3611 10.2275C10.4129 9.96444 10.4643 9.70211 10.5156 9.43956C10.5486 9.2953 10.5811 9.15063 10.6136 9.00657C10.7001 8.60027 10.7864 8.19356 10.8725 7.78703C10.9005 7.65729 10.9279 7.52775 10.9557 7.39801C10.9625 7.36724 10.9706 7.33626 10.9767 7.30528C11.06 6.91118 11.1429 6.51706 11.2257 6.1227Z" fill="#111113"/>
</svg>
