<svg width="17" height="17" viewBox="0 0 17 17" fill="none" xmlns="http://www.w3.org/2000/svg">
<rect width="17" height="17" rx="3" fill="#8FCE51"/>
<path d="M14.1673 5.14765C13.7509 5.33576 13.3029 5.46128 12.8304 5.52067C13.3108 5.22983 13.6803 4.76596 13.8538 4.21798C13.4043 4.48667 12.9063 4.6841 12.3765 4.78811C11.9534 4.33066 11.35 4.04688 10.6813 4.04688C9.39701 4.04688 8.35601 5.09917 8.35601 6.39673C8.35601 6.58035 8.3771 6.75916 8.41676 6.93283C6.48459 6.83395 4.77088 5.89722 3.62442 4.47576C3.42295 4.8231 3.30963 5.22983 3.30963 5.65903C3.30963 6.47473 3.71917 7.19285 4.34371 7.61595C3.9625 7.60408 3.60364 7.49589 3.28948 7.32254C3.28948 7.32961 3.28948 7.3402 3.28948 7.35015C3.28948 8.49009 4.09125 9.43934 5.15398 9.65538C4.95975 9.70963 4.75451 9.73981 4.54297 9.73981C4.39282 9.73981 4.24644 9.72248 4.10479 9.69647C4.40069 10.6281 5.25912 11.3089 6.2762 11.3292C5.48041 11.9584 4.47813 12.3352 3.38833 12.3352C3.20008 12.3352 3.01593 12.3243 2.83398 12.3019C3.86366 12.9667 5.0863 13.3564 6.39865 13.3564C10.6751 13.3564 13.0146 9.77512 13.0146 6.66831C13.0146 6.56655 13.0114 6.4651 13.0067 6.36495C13.4631 6.03622 13.8566 5.62147 14.1673 5.14765Z" fill="#111112"/>
</svg>
